<svg x="0" y="0">
    <svg xmlns="http://www.w3.org/2000/svg"
        viewBox="-0.01118385698646307 0.006439328193664551 156.10589599609375 173.85641479492188">
        <path
            d="M0 72.88V43.65a2.35 2.35 0 0 1 1.37-2.37q15.57-8.89 31.09-17.89c1.49-.87 1.53-.85 1.53 1v44.67c0 2.3.07 2.34 2 1.22L71.86 49.6c1.68-1 1.7-1 1.7.89v9.58a2.39 2.39 0 0 1-1.35 2.41q-35.28 20.3-70.56 40.64c-1.6.93-1.62.91-1.62-1z"
            fill="#2d2c2a"></path>
        <path
            d="M155.37 70.1a2.71 2.71 0 0 1 .36 2v58a2.76 2.76 0 0 1-1.59 2.78c-10.19 5.83-20.34 11.73-30.5 17.61-1.76 1-1.84 1-1.84-1.15v-43.5-1.51c.07-1.36-.38-1.51-1.54-.84q-18 10.41-36.05 20.76c-2 1.14-2 1.12-2-1.14v-9.24a2.26 2.26 0 0 1 1.26-2.29q35.46-20.43 70.89-40.93a10.8 10.8 0 0 1 1.01-.55zM82.2 19.34V1.71c0-2 .12-2.08 1.89-1.06l54.74 31.62c3.73 2.15 7.44 4.32 11.19 6.43 1.2.68 1.33 1.06 0 1.81q-15.57 8.91-31.09 17.92a2.25 2.25 0 0 1-2.59.09Q100.2 49.1 84 39.81a3.13 3.13 0 0 1-1.8-3.18c.06-5.76 0-11.53 0-17.29z"
            fill="#e12228"></path>
        <path
            d="M73.56 154.51v18c0 1.47-.31 1.62-1.59.88Q39 154.27 6 135.27c-1.5-.86-1.5-1 0-1.89q15.6-9 31.19-18a1.85 1.85 0 0 1 2.13 0q16.55 9.55 33.12 19a2.15 2.15 0 0 1 1.2 2.15c-.1 6-.08 11.99-.08 17.98z"
            fill="#2d2c2a"></path>
        <path
            d="M155.74 53.74c1.29 4.75-1.06 7.09-5.08 9.36-23.4 13.25-46.66 26.8-69.91 40.24-1.84 1.07-3.65 2.18-5.55 3.13a2.65 2.65 0 0 0-1.59 2.79c.07 4.7 0 9.4 0 14.1 0 1.76-.2 1.89-1.64 1.06l-23.36-13.49c-1.79-1-1.78-1.14 0-2.17l74.23-42.82q15.6-9 31.21-18c1.65-.95 1.67-.94 1.68 1 .02 1.55.01 3.17.01 4.8z"
            fill="#e12228"></path>
        <path
            d="M82.21 48.61l26.86 15.45c-2.09 1.23-3.94 2.34-5.82 3.43L2.34 125.65c-.34.2-.7.37-1 .59-1 .75-1.31.32-1.3-.78 0-3.53.05-7.06 0-10.58 0-1.1.66-1.41 1.4-1.83q17.2-9.92 34.41-19.85Q58.24 80.29 80.7 67.4a2.62 2.62 0 0 0 1.54-2.64c-.08-4.65 0-9.3 0-14zM82.21 154.45v-17.8a2.36 2.36 0 0 1 1.4-2.36q14-8 28-16.13c1.64-.94 1.73-.89 1.73 1v35.77a2.16 2.16 0 0 1-1.21 2.14q-14.25 8.16-28.46 16.39c-1.18.68-1.51.56-1.5-.83.06-6.09.04-12.14.04-18.18z"
            fill="#2d2c2a"></path>
        <path
            d="M42.5 36.79V19.17a2.55 2.55 0 0 1 1.45-2.55C53.23 11.3 62.51 5.92 71.8.57c1.55-.9 1.76-.78 1.76 1v35.57a2.43 2.43 0 0 1-1.4 2.39q-14.05 8.14-28.09 16.34c-1.28.75-1.6.42-1.59-1 .04-6 .02-12.04.02-18.08z"
            fill="#e12228"></path>
    </svg>
</svg>